<svg xmlns="http://www.w3.org/2000/svg" xmlns:xlink="http://www.w3.org/1999/xlink" width="500" zoomAndPan="magnify" viewBox="0 0 375 374.999991" height="500" preserveAspectRatio="xMidYMid meet" version="1.0"><defs><g/><clipPath id="be72c56951"><path d="M 26.367188 3 L 348.632812 3 L 348.632812 372 L 26.367188 372 Z M 26.367188 3 " clip-rule="nonzero"/></clipPath><clipPath id="492b88405f"><path d="M 197.871094 6.035156 L 338.261719 87.714844 C 344.683594 91.453125 348.632812 98.320312 348.632812 105.75 L 348.632812 269.25 C 348.632812 276.679688 344.683594 283.546875 338.261719 287.285156 L 197.871094 368.964844 C 191.460938 372.695312 183.539062 372.695312 177.128906 368.964844 L 36.738281 287.285156 C 30.316406 283.546875 26.367188 276.679688 26.367188 269.25 L 26.367188 105.75 C 26.367188 98.320312 30.316406 91.453125 36.738281 87.714844 L 177.128906 6.035156 C 183.539062 2.304688 191.460938 2.304688 197.871094 6.035156 Z M 197.871094 6.035156 " clip-rule="nonzero"/></clipPath><clipPath id="5ec8a88528"><path d="M 0.367188 0.234375 L 322.632812 0.234375 L 322.632812 368.761719 L 0.367188 368.761719 Z M 0.367188 0.234375 " clip-rule="nonzero"/></clipPath><clipPath id="708de41d08"><path d="M 171.871094 3.035156 L 312.261719 84.714844 C 318.683594 88.453125 322.632812 95.320312 322.632812 102.75 L 322.632812 266.25 C 322.632812 273.679688 318.683594 280.546875 312.261719 284.285156 L 171.871094 365.964844 C 165.460938 369.695312 157.539062 369.695312 151.128906 365.964844 L 10.738281 284.285156 C 4.316406 280.546875 0.367188 273.679688 0.367188 266.25 L 0.367188 102.75 C 0.367188 95.320312 4.316406 88.453125 10.738281 84.714844 L 151.128906 3.035156 C 157.539062 -0.695312 165.460938 -0.695312 171.871094 3.035156 Z M 171.871094 3.035156 " clip-rule="nonzero"/></clipPath><linearGradient x1="128" gradientTransform="matrix(1.25885, 0, 0, 1.25885, 0.36719, -3.00023)" y1="2.571" x2="128" gradientUnits="userSpaceOnUse" y2="295.31899" id="6fd2e594d4"><stop stop-opacity="1" stop-color="rgb(69.799805%, 94.509888%, 100%)" offset="0"/><stop stop-opacity="1" stop-color="rgb(69.514465%, 94.030762%, 99.778748%)" offset="0.00390625"/><stop stop-opacity="1" stop-color="rgb(69.229126%, 93.553162%, 99.557495%)" offset="0.0078125"/><stop stop-opacity="1" stop-color="rgb(68.943787%, 93.075562%, 99.336243%)" offset="0.0117188"/><stop stop-opacity="1" stop-color="rgb(68.659973%, 92.597961%, 99.116516%)" offset="0.015625"/><stop stop-opacity="1" stop-color="rgb(68.374634%, 92.118835%, 98.895264%)" offset="0.0195312"/><stop stop-opacity="1" stop-color="rgb(68.089294%, 91.641235%, 98.675537%)" offset="0.0234375"/><stop stop-opacity="1" stop-color="rgb(67.803955%, 91.163635%, 98.454285%)" offset="0.0273438"/><stop stop-opacity="1" stop-color="rgb(67.520142%, 90.686035%, 98.234558%)" offset="0.03125"/><stop stop-opacity="1" stop-color="rgb(67.234802%, 90.206909%, 98.013306%)" offset="0.0351562"/><stop stop-opacity="1" stop-color="rgb(66.949463%, 89.729309%, 97.793579%)" offset="0.0390625"/><stop stop-opacity="1" stop-color="rgb(66.664124%, 89.251709%, 97.572327%)" offset="0.0429688"/><stop stop-opacity="1" stop-color="rgb(66.38031%, 88.774109%, 97.351074%)" offset="0.046875"/><stop stop-opacity="1" stop-color="rgb(66.094971%, 88.294983%, 97.129822%)" offset="0.0507812"/><stop stop-opacity="1" stop-color="rgb(65.809631%, 87.817383%, 96.910095%)" offset="0.0546875"/><stop stop-opacity="1" stop-color="rgb(65.524292%, 87.339783%, 96.688843%)" offset="0.0585938"/><stop stop-opacity="1" stop-color="rgb(65.240479%, 86.862183%, 96.469116%)" offset="0.0625"/><stop stop-opacity="1" stop-color="rgb(64.955139%, 86.383057%, 96.247864%)" offset="0.0664062"/><stop stop-opacity="1" stop-color="rgb(64.671326%, 85.905457%, 96.028137%)" offset="0.0703125"/><stop stop-opacity="1" stop-color="rgb(64.385986%, 85.427856%, 95.806885%)" offset="0.0742188"/><stop stop-opacity="1" stop-color="rgb(64.100647%, 84.950256%, 95.587158%)" offset="0.078125"/><stop stop-opacity="1" stop-color="rgb(63.815308%, 84.47113%, 95.365906%)" offset="0.0820312"/><stop stop-opacity="1" stop-color="rgb(63.531494%, 83.99353%, 95.146179%)" offset="0.0859375"/><stop stop-opacity="1" stop-color="rgb(63.246155%, 83.51593%, 94.924927%)" offset="0.0898438"/><stop stop-opacity="1" stop-color="rgb(62.960815%, 83.03833%, 94.703674%)" offset="0.09375"/><stop stop-opacity="1" stop-color="rgb(62.675476%, 82.559204%, 94.482422%)" offset="0.0976562"/><stop stop-opacity="1" stop-color="rgb(62.391663%, 82.081604%, 94.262695%)" offset="0.101562"/><stop stop-opacity="1" stop-color="rgb(62.106323%, 81.604004%, 94.041443%)" offset="0.105469"/><stop stop-opacity="1" stop-color="rgb(61.820984%, 81.126404%, 93.821716%)" offset="0.109375"/><stop stop-opacity="1" stop-color="rgb(61.535645%, 80.647278%, 93.600464%)" offset="0.113281"/><stop stop-opacity="1" stop-color="rgb(61.251831%, 80.169678%, 93.380737%)" offset="0.117188"/><stop stop-opacity="1" stop-color="rgb(60.966492%, 79.692078%, 93.159485%)" offset="0.121094"/><stop stop-opacity="1" stop-color="rgb(60.681152%, 79.214478%, 92.939758%)" offset="0.125"/><stop stop-opacity="1" stop-color="rgb(60.395813%, 78.735352%, 92.718506%)" offset="0.128906"/><stop stop-opacity="1" stop-color="rgb(60.112%, 78.257751%, 92.497253%)" offset="0.132812"/><stop stop-opacity="1" stop-color="rgb(59.82666%, 77.780151%, 92.276001%)" offset="0.136719"/><stop stop-opacity="1" stop-color="rgb(59.542847%, 77.302551%, 92.056274%)" offset="0.140625"/><stop stop-opacity="1" stop-color="rgb(59.257507%, 76.823425%, 91.835022%)" offset="0.144531"/><stop stop-opacity="1" stop-color="rgb(58.972168%, 76.345825%, 91.615295%)" offset="0.148438"/><stop stop-opacity="1" stop-color="rgb(58.686829%, 75.868225%, 91.394043%)" offset="0.152344"/><stop stop-opacity="1" stop-color="rgb(58.403015%, 75.390625%, 91.174316%)" offset="0.15625"/><stop stop-opacity="1" stop-color="rgb(58.117676%, 74.911499%, 90.953064%)" offset="0.160156"/><stop stop-opacity="1" stop-color="rgb(57.832336%, 74.433899%, 90.733337%)" offset="0.164062"/><stop stop-opacity="1" stop-color="rgb(57.546997%, 73.956299%, 90.512085%)" offset="0.167969"/><stop stop-opacity="1" stop-color="rgb(57.263184%, 73.478699%, 90.292358%)" offset="0.171875"/><stop stop-opacity="1" stop-color="rgb(56.977844%, 73.001099%, 90.071106%)" offset="0.175781"/><stop stop-opacity="1" stop-color="rgb(56.692505%, 72.523499%, 89.849854%)" offset="0.179688"/><stop stop-opacity="1" stop-color="rgb(56.407166%, 72.044373%, 89.628601%)" offset="0.183594"/><stop stop-opacity="1" stop-color="rgb(56.123352%, 71.566772%, 89.408875%)" offset="0.1875"/><stop stop-opacity="1" stop-color="rgb(55.838013%, 71.089172%, 89.187622%)" offset="0.191406"/><stop stop-opacity="1" stop-color="rgb(55.552673%, 70.611572%, 88.967896%)" offset="0.195312"/><stop stop-opacity="1" stop-color="rgb(55.267334%, 70.132446%, 88.746643%)" offset="0.199219"/><stop stop-opacity="1" stop-color="rgb(54.983521%, 69.654846%, 88.526917%)" offset="0.203125"/><stop stop-opacity="1" stop-color="rgb(54.698181%, 69.177246%, 88.305664%)" offset="0.207031"/><stop stop-opacity="1" stop-color="rgb(54.412842%, 68.699646%, 88.085938%)" offset="0.210938"/><stop stop-opacity="1" stop-color="rgb(54.127502%, 68.22052%, 87.864685%)" offset="0.214844"/><stop stop-opacity="1" stop-color="rgb(53.843689%, 67.74292%, 87.644958%)" offset="0.21875"/><stop stop-opacity="1" stop-color="rgb(53.55835%, 67.26532%, 87.423706%)" offset="0.222656"/><stop stop-opacity="1" stop-color="rgb(53.274536%, 66.78772%, 87.202454%)" offset="0.226562"/><stop stop-opacity="1" stop-color="rgb(52.989197%, 66.308594%, 86.981201%)" offset="0.230469"/><stop stop-opacity="1" stop-color="rgb(52.703857%, 65.830994%, 86.761475%)" offset="0.234375"/><stop stop-opacity="1" stop-color="rgb(52.418518%, 65.353394%, 86.540222%)" offset="0.238281"/><stop stop-opacity="1" stop-color="rgb(52.134705%, 64.875793%, 86.320496%)" offset="0.242188"/><stop stop-opacity="1" stop-color="rgb(51.849365%, 64.396667%, 86.099243%)" offset="0.246094"/><stop stop-opacity="1" stop-color="rgb(51.564026%, 63.919067%, 85.879517%)" offset="0.25"/><stop stop-opacity="1" stop-color="rgb(51.278687%, 63.441467%, 85.658264%)" offset="0.253906"/><stop stop-opacity="1" stop-color="rgb(50.994873%, 62.963867%, 85.438538%)" offset="0.257812"/><stop stop-opacity="1" stop-color="rgb(50.709534%, 62.484741%, 85.217285%)" offset="0.261719"/><stop stop-opacity="1" stop-color="rgb(50.424194%, 62.007141%, 84.996033%)" offset="0.265625"/><stop stop-opacity="1" stop-color="rgb(50.138855%, 61.529541%, 84.77478%)" offset="0.269531"/><stop stop-opacity="1" stop-color="rgb(49.855042%, 61.051941%, 84.555054%)" offset="0.273438"/><stop stop-opacity="1" stop-color="rgb(49.569702%, 60.572815%, 84.333801%)" offset="0.277344"/><stop stop-opacity="1" stop-color="rgb(49.284363%, 60.095215%, 84.114075%)" offset="0.28125"/><stop stop-opacity="1" stop-color="rgb(48.999023%, 59.617615%, 83.892822%)" offset="0.285156"/><stop stop-opacity="1" stop-color="rgb(48.71521%, 59.140015%, 83.673096%)" offset="0.289062"/><stop stop-opacity="1" stop-color="rgb(48.429871%, 58.660889%, 83.451843%)" offset="0.292969"/><stop stop-opacity="1" stop-color="rgb(48.144531%, 58.183289%, 83.232117%)" offset="0.296875"/><stop stop-opacity="1" stop-color="rgb(47.859192%, 57.705688%, 83.010864%)" offset="0.300781"/><stop stop-opacity="1" stop-color="rgb(47.575378%, 57.228088%, 82.791138%)" offset="0.304687"/><stop stop-opacity="1" stop-color="rgb(47.290039%, 56.748962%, 82.569885%)" offset="0.308594"/><stop stop-opacity="1" stop-color="rgb(47.006226%, 56.271362%, 82.348633%)" offset="0.3125"/><stop stop-opacity="1" stop-color="rgb(46.720886%, 55.793762%, 82.12738%)" offset="0.316406"/><stop stop-opacity="1" stop-color="rgb(46.435547%, 55.316162%, 81.907654%)" offset="0.320312"/><stop stop-opacity="1" stop-color="rgb(46.150208%, 54.837036%, 81.686401%)" offset="0.324219"/><stop stop-opacity="1" stop-color="rgb(45.866394%, 54.359436%, 81.466675%)" offset="0.328125"/><stop stop-opacity="1" stop-color="rgb(45.581055%, 53.881836%, 81.245422%)" offset="0.332031"/><stop stop-opacity="1" stop-color="rgb(45.295715%, 53.404236%, 81.025696%)" offset="0.335937"/><stop stop-opacity="1" stop-color="rgb(45.010376%, 52.92511%, 80.804443%)" offset="0.339844"/><stop stop-opacity="1" stop-color="rgb(44.726562%, 52.44751%, 80.584717%)" offset="0.34375"/><stop stop-opacity="1" stop-color="rgb(44.441223%, 51.96991%, 80.363464%)" offset="0.347656"/><stop stop-opacity="1" stop-color="rgb(44.155884%, 51.49231%, 80.143738%)" offset="0.351562"/><stop stop-opacity="1" stop-color="rgb(43.870544%, 51.013184%, 79.922485%)" offset="0.355469"/><stop stop-opacity="1" stop-color="rgb(43.586731%, 50.535583%, 79.701233%)" offset="0.359375"/><stop stop-opacity="1" stop-color="rgb(43.301392%, 50.057983%, 79.47998%)" offset="0.363281"/><stop stop-opacity="1" stop-color="rgb(43.016052%, 49.580383%, 79.260254%)" offset="0.367187"/><stop stop-opacity="1" stop-color="rgb(42.730713%, 49.101257%, 79.039001%)" offset="0.371094"/><stop stop-opacity="1" stop-color="rgb(42.446899%, 48.623657%, 78.819275%)" offset="0.375"/><stop stop-opacity="1" stop-color="rgb(42.16156%, 48.146057%, 78.598022%)" offset="0.378906"/><stop stop-opacity="1" stop-color="rgb(41.877747%, 47.668457%, 78.378296%)" offset="0.382812"/><stop stop-opacity="1" stop-color="rgb(41.592407%, 47.190857%, 78.157043%)" offset="0.386719"/><stop stop-opacity="1" stop-color="rgb(41.307068%, 46.713257%, 77.937317%)" offset="0.390625"/><stop stop-opacity="1" stop-color="rgb(41.021729%, 46.234131%, 77.716064%)" offset="0.394531"/><stop stop-opacity="1" stop-color="rgb(40.737915%, 45.756531%, 77.494812%)" offset="0.398438"/><stop stop-opacity="1" stop-color="rgb(40.452576%, 45.278931%, 77.27356%)" offset="0.402344"/><stop stop-opacity="1" stop-color="rgb(40.167236%, 44.801331%, 77.053833%)" offset="0.40625"/><stop stop-opacity="1" stop-color="rgb(39.881897%, 44.322205%, 76.832581%)" offset="0.410156"/><stop stop-opacity="1" stop-color="rgb(39.598083%, 43.844604%, 76.612854%)" offset="0.414062"/><stop stop-opacity="1" stop-color="rgb(39.312744%, 43.367004%, 76.391602%)" offset="0.417969"/><stop stop-opacity="1" stop-color="rgb(39.027405%, 42.889404%, 76.171875%)" offset="0.421875"/><stop stop-opacity="1" stop-color="rgb(38.742065%, 42.410278%, 75.950623%)" offset="0.425781"/><stop stop-opacity="1" stop-color="rgb(38.458252%, 41.932678%, 75.730896%)" offset="0.429688"/><stop stop-opacity="1" stop-color="rgb(38.172913%, 41.455078%, 75.509644%)" offset="0.433594"/><stop stop-opacity="1" stop-color="rgb(37.887573%, 40.977478%, 75.289917%)" offset="0.4375"/><stop stop-opacity="1" stop-color="rgb(37.602234%, 40.498352%, 75.068665%)" offset="0.441406"/><stop stop-opacity="1" stop-color="rgb(37.31842%, 40.020752%, 74.847412%)" offset="0.445312"/><stop stop-opacity="1" stop-color="rgb(37.033081%, 39.543152%, 74.62616%)" offset="0.449219"/><stop stop-opacity="1" stop-color="rgb(36.747742%, 39.065552%, 74.406433%)" offset="0.453125"/><stop stop-opacity="1" stop-color="rgb(36.462402%, 38.586426%, 74.185181%)" offset="0.457031"/><stop stop-opacity="1" stop-color="rgb(36.178589%, 38.108826%, 73.965454%)" offset="0.460938"/><stop stop-opacity="1" stop-color="rgb(35.89325%, 37.631226%, 73.744202%)" offset="0.464844"/><stop stop-opacity="1" stop-color="rgb(35.609436%, 37.153625%, 73.524475%)" offset="0.46875"/><stop stop-opacity="1" stop-color="rgb(35.324097%, 36.6745%, 73.303223%)" offset="0.472656"/><stop stop-opacity="1" stop-color="rgb(35.038757%, 36.196899%, 73.083496%)" offset="0.476562"/><stop stop-opacity="1" stop-color="rgb(34.753418%, 35.719299%, 72.862244%)" offset="0.480469"/><stop stop-opacity="1" stop-color="rgb(34.469604%, 35.241699%, 72.642517%)" offset="0.484375"/><stop stop-opacity="1" stop-color="rgb(34.184265%, 34.762573%, 72.421265%)" offset="0.488281"/><stop stop-opacity="1" stop-color="rgb(33.898926%, 34.284973%, 72.200012%)" offset="0.492188"/><stop stop-opacity="1" stop-color="rgb(33.613586%, 33.807373%, 71.97876%)" offset="0.496094"/><stop stop-opacity="1" stop-color="rgb(33.329773%, 33.329773%, 71.759033%)" offset="0.5"/><stop stop-opacity="1" stop-color="rgb(33.078003%, 33.117676%, 71.342468%)" offset="0.503906"/><stop stop-opacity="1" stop-color="rgb(32.827759%, 32.907104%, 70.925903%)" offset="0.507812"/><stop stop-opacity="1" stop-color="rgb(32.575989%, 32.695007%, 70.509338%)" offset="0.511719"/><stop stop-opacity="1" stop-color="rgb(32.324219%, 32.484436%, 70.092773%)" offset="0.515625"/><stop stop-opacity="1" stop-color="rgb(32.072449%, 32.272339%, 69.676208%)" offset="0.519531"/><stop stop-opacity="1" stop-color="rgb(31.822205%, 32.060242%, 69.259644%)" offset="0.523438"/><stop stop-opacity="1" stop-color="rgb(31.570435%, 31.848145%, 68.843079%)" offset="0.527344"/><stop stop-opacity="1" stop-color="rgb(31.32019%, 31.637573%, 68.426514%)" offset="0.53125"/><stop stop-opacity="1" stop-color="rgb(31.06842%, 31.425476%, 68.009949%)" offset="0.535156"/><stop stop-opacity="1" stop-color="rgb(30.818176%, 31.214905%, 67.593384%)" offset="0.539062"/><stop stop-opacity="1" stop-color="rgb(30.566406%, 31.002808%, 67.176819%)" offset="0.542969"/><stop stop-opacity="1" stop-color="rgb(30.314636%, 30.792236%, 66.760254%)" offset="0.546875"/><stop stop-opacity="1" stop-color="rgb(30.062866%, 30.580139%, 66.343689%)" offset="0.550781"/><stop stop-opacity="1" stop-color="rgb(29.812622%, 30.369568%, 65.927124%)" offset="0.554688"/><stop stop-opacity="1" stop-color="rgb(29.560852%, 30.157471%, 65.509033%)" offset="0.558594"/><stop stop-opacity="1" stop-color="rgb(29.310608%, 29.946899%, 65.092468%)" offset="0.5625"/><stop stop-opacity="1" stop-color="rgb(29.058838%, 29.734802%, 64.675903%)" offset="0.566406"/><stop stop-opacity="1" stop-color="rgb(28.808594%, 29.524231%, 64.259338%)" offset="0.570312"/><stop stop-opacity="1" stop-color="rgb(28.556824%, 29.312134%, 63.842773%)" offset="0.574219"/><stop stop-opacity="1" stop-color="rgb(28.30658%, 29.101562%, 63.426208%)" offset="0.578125"/><stop stop-opacity="1" stop-color="rgb(28.05481%, 28.889465%, 63.009644%)" offset="0.582031"/><stop stop-opacity="1" stop-color="rgb(27.80304%, 28.678894%, 62.593079%)" offset="0.585937"/><stop stop-opacity="1" stop-color="rgb(27.55127%, 28.466797%, 62.176514%)" offset="0.589844"/><stop stop-opacity="1" stop-color="rgb(27.301025%, 28.256226%, 61.759949%)" offset="0.59375"/><stop stop-opacity="1" stop-color="rgb(27.049255%, 28.044128%, 61.343384%)" offset="0.597656"/><stop stop-opacity="1" stop-color="rgb(26.799011%, 27.832031%, 60.926819%)" offset="0.601562"/><stop stop-opacity="1" stop-color="rgb(26.547241%, 27.619934%, 60.510254%)" offset="0.605469"/><stop stop-opacity="1" stop-color="rgb(26.296997%, 27.409363%, 60.093689%)" offset="0.609375"/><stop stop-opacity="1" stop-color="rgb(26.045227%, 27.197266%, 59.677124%)" offset="0.613281"/><stop stop-opacity="1" stop-color="rgb(25.793457%, 26.986694%, 59.260559%)" offset="0.617188"/><stop stop-opacity="1" stop-color="rgb(25.541687%, 26.774597%, 58.843994%)" offset="0.621094"/><stop stop-opacity="1" stop-color="rgb(25.291443%, 26.564026%, 58.427429%)" offset="0.625"/><stop stop-opacity="1" stop-color="rgb(25.039673%, 26.351929%, 58.010864%)" offset="0.628906"/><stop stop-opacity="1" stop-color="rgb(24.789429%, 26.141357%, 57.594299%)" offset="0.632812"/><stop stop-opacity="1" stop-color="rgb(24.537659%, 25.92926%, 57.177734%)" offset="0.636719"/><stop stop-opacity="1" stop-color="rgb(24.287415%, 25.718689%, 56.761169%)" offset="0.640625"/><stop stop-opacity="1" stop-color="rgb(24.035645%, 25.506592%, 56.343079%)" offset="0.644531"/><stop stop-opacity="1" stop-color="rgb(23.7854%, 25.296021%, 55.926514%)" offset="0.648438"/><stop stop-opacity="1" stop-color="rgb(23.53363%, 25.083923%, 55.509949%)" offset="0.652344"/><stop stop-opacity="1" stop-color="rgb(23.28186%, 24.873352%, 55.093384%)" offset="0.65625"/><stop stop-opacity="1" stop-color="rgb(23.03009%, 24.661255%, 54.676819%)" offset="0.660156"/><stop stop-opacity="1" stop-color="rgb(22.779846%, 24.450684%, 54.260254%)" offset="0.664062"/><stop stop-opacity="1" stop-color="rgb(22.528076%, 24.238586%, 53.843689%)" offset="0.667969"/><stop stop-opacity="1" stop-color="rgb(22.277832%, 24.028015%, 53.427124%)" offset="0.671875"/><stop stop-opacity="1" stop-color="rgb(22.026062%, 23.815918%, 53.010559%)" offset="0.675781"/><stop stop-opacity="1" stop-color="rgb(21.775818%, 23.605347%, 52.593994%)" offset="0.679687"/><stop stop-opacity="1" stop-color="rgb(21.524048%, 23.39325%, 52.177429%)" offset="0.683594"/><stop stop-opacity="1" stop-color="rgb(21.273804%, 23.181152%, 51.760864%)" offset="0.6875"/><stop stop-opacity="1" stop-color="rgb(21.022034%, 22.969055%, 51.344299%)" offset="0.691406"/><stop stop-opacity="1" stop-color="rgb(20.770264%, 22.758484%, 50.927734%)" offset="0.695312"/><stop stop-opacity="1" stop-color="rgb(20.518494%, 22.546387%, 50.511169%)" offset="0.699219"/><stop stop-opacity="1" stop-color="rgb(20.26825%, 22.335815%, 50.094604%)" offset="0.703125"/><stop stop-opacity="1" stop-color="rgb(20.016479%, 22.123718%, 49.67804%)" offset="0.707031"/><stop stop-opacity="1" stop-color="rgb(19.766235%, 21.913147%, 49.261475%)" offset="0.710938"/><stop stop-opacity="1" stop-color="rgb(19.514465%, 21.70105%, 48.84491%)" offset="0.714844"/><stop stop-opacity="1" stop-color="rgb(19.264221%, 21.490479%, 48.428345%)" offset="0.71875"/><stop stop-opacity="1" stop-color="rgb(19.012451%, 21.278381%, 48.010254%)" offset="0.722656"/><stop stop-opacity="1" stop-color="rgb(18.760681%, 21.06781%, 47.593689%)" offset="0.726562"/><stop stop-opacity="1" stop-color="rgb(18.508911%, 20.855713%, 47.177124%)" offset="0.730469"/><stop stop-opacity="1" stop-color="rgb(18.258667%, 20.645142%, 46.760559%)" offset="0.734375"/><stop stop-opacity="1" stop-color="rgb(18.006897%, 20.433044%, 46.343994%)" offset="0.738281"/><stop stop-opacity="1" stop-color="rgb(17.756653%, 20.222473%, 45.927429%)" offset="0.742188"/><stop stop-opacity="1" stop-color="rgb(17.504883%, 20.010376%, 45.510864%)" offset="0.746094"/><stop stop-opacity="1" stop-color="rgb(17.254639%, 19.799805%, 45.094299%)" offset="0.75"/><stop stop-opacity="1" stop-color="rgb(17.002869%, 19.587708%, 44.677734%)" offset="0.753906"/><stop stop-opacity="1" stop-color="rgb(16.752625%, 19.377136%, 44.261169%)" offset="0.757812"/><stop stop-opacity="1" stop-color="rgb(16.500854%, 19.165039%, 43.844604%)" offset="0.761719"/><stop stop-opacity="1" stop-color="rgb(16.249084%, 18.954468%, 43.42804%)" offset="0.765625"/><stop stop-opacity="1" stop-color="rgb(15.997314%, 18.742371%, 43.011475%)" offset="0.769531"/><stop stop-opacity="1" stop-color="rgb(15.74707%, 18.530273%, 42.59491%)" offset="0.773438"/><stop stop-opacity="1" stop-color="rgb(15.4953%, 18.318176%, 42.178345%)" offset="0.777344"/><stop stop-opacity="1" stop-color="rgb(15.245056%, 18.107605%, 41.76178%)" offset="0.78125"/><stop stop-opacity="1" stop-color="rgb(14.993286%, 17.895508%, 41.345215%)" offset="0.785156"/><stop stop-opacity="1" stop-color="rgb(14.743042%, 17.684937%, 40.92865%)" offset="0.789062"/><stop stop-opacity="1" stop-color="rgb(14.491272%, 17.472839%, 40.512085%)" offset="0.792969"/><stop stop-opacity="1" stop-color="rgb(14.241028%, 17.262268%, 40.09552%)" offset="0.796875"/><stop stop-opacity="1" stop-color="rgb(13.989258%, 17.050171%, 39.677429%)" offset="0.800781"/><stop stop-opacity="1" stop-color="rgb(13.737488%, 16.8396%, 39.260864%)" offset="0.804687"/><stop stop-opacity="1" stop-color="rgb(13.485718%, 16.627502%, 38.844299%)" offset="0.808594"/><stop stop-opacity="1" stop-color="rgb(13.235474%, 16.416931%, 38.427734%)" offset="0.8125"/><stop stop-opacity="1" stop-color="rgb(12.983704%, 16.204834%, 38.011169%)" offset="0.816406"/><stop stop-opacity="1" stop-color="rgb(12.733459%, 15.994263%, 37.594604%)" offset="0.820312"/><stop stop-opacity="1" stop-color="rgb(12.481689%, 15.782166%, 37.17804%)" offset="0.824219"/><stop stop-opacity="1" stop-color="rgb(12.231445%, 15.571594%, 36.761475%)" offset="0.828125"/><stop stop-opacity="1" stop-color="rgb(11.979675%, 15.359497%, 36.34491%)" offset="0.832031"/><stop stop-opacity="1" stop-color="rgb(11.727905%, 15.148926%, 35.928345%)" offset="0.835938"/><stop stop-opacity="1" stop-color="rgb(11.476135%, 14.936829%, 35.51178%)" offset="0.839844"/><stop stop-opacity="1" stop-color="rgb(11.225891%, 14.726257%, 35.095215%)" offset="0.84375"/><stop stop-opacity="1" stop-color="rgb(10.974121%, 14.51416%, 34.67865%)" offset="0.847656"/><stop stop-opacity="1" stop-color="rgb(10.723877%, 14.303589%, 34.262085%)" offset="0.851562"/><stop stop-opacity="1" stop-color="rgb(10.472107%, 14.091492%, 33.84552%)" offset="0.855469"/><stop stop-opacity="1" stop-color="rgb(10.221863%, 13.879395%, 33.428955%)" offset="0.859375"/><stop stop-opacity="1" stop-color="rgb(9.970093%, 13.667297%, 33.01239%)" offset="0.863281"/><stop stop-opacity="1" stop-color="rgb(9.719849%, 13.456726%, 32.595825%)" offset="0.867188"/><stop stop-opacity="1" stop-color="rgb(9.468079%, 13.244629%, 32.17926%)" offset="0.871094"/><stop stop-opacity="1" stop-color="rgb(9.216309%, 13.034058%, 31.762695%)" offset="0.875"/><stop stop-opacity="1" stop-color="rgb(8.964539%, 12.82196%, 31.344604%)" offset="0.878906"/><stop stop-opacity="1" stop-color="rgb(8.714294%, 12.611389%, 30.92804%)" offset="0.882812"/><stop stop-opacity="1" stop-color="rgb(8.462524%, 12.399292%, 30.511475%)" offset="0.886719"/><stop stop-opacity="1" stop-color="rgb(8.21228%, 12.188721%, 30.09491%)" offset="0.890625"/><stop stop-opacity="1" stop-color="rgb(7.96051%, 11.976624%, 29.678345%)" offset="0.894531"/><stop stop-opacity="1" stop-color="rgb(7.710266%, 11.766052%, 29.26178%)" offset="0.898438"/><stop stop-opacity="1" stop-color="rgb(7.458496%, 11.553955%, 28.845215%)" offset="0.902344"/><stop stop-opacity="1" stop-color="rgb(7.208252%, 11.343384%, 28.42865%)" offset="0.90625"/><stop stop-opacity="1" stop-color="rgb(6.956482%, 11.131287%, 28.012085%)" offset="0.910156"/><stop stop-opacity="1" stop-color="rgb(6.704712%, 10.920715%, 27.59552%)" offset="0.914062"/><stop stop-opacity="1" stop-color="rgb(6.452942%, 10.708618%, 27.178955%)" offset="0.917969"/><stop stop-opacity="1" stop-color="rgb(6.202698%, 10.498047%, 26.76239%)" offset="0.921875"/><stop stop-opacity="1" stop-color="rgb(5.950928%, 10.28595%, 26.345825%)" offset="0.925781"/><stop stop-opacity="1" stop-color="rgb(5.700684%, 10.075378%, 25.92926%)" offset="0.929687"/><stop stop-opacity="1" stop-color="rgb(5.448914%, 9.863281%, 25.512695%)" offset="0.933594"/><stop stop-opacity="1" stop-color="rgb(5.198669%, 9.651184%, 25.09613%)" offset="0.9375"/><stop stop-opacity="1" stop-color="rgb(4.946899%, 9.439087%, 24.679565%)" offset="0.941406"/><stop stop-opacity="1" stop-color="rgb(4.695129%, 9.228516%, 24.263%)" offset="0.945313"/><stop stop-opacity="1" stop-color="rgb(4.443359%, 9.016418%, 23.846436%)" offset="0.949219"/><stop stop-opacity="1" stop-color="rgb(4.193115%, 8.805847%, 23.429871%)" offset="0.953125"/><stop stop-opacity="1" stop-color="rgb(3.941345%, 8.59375%, 23.013306%)" offset="0.957031"/><stop stop-opacity="1" stop-color="rgb(3.691101%, 8.383179%, 22.596741%)" offset="0.960938"/><stop stop-opacity="1" stop-color="rgb(3.439331%, 8.171082%, 22.17865%)" offset="0.964844"/><stop stop-opacity="1" stop-color="rgb(3.189087%, 7.96051%, 21.762085%)" offset="0.96875"/><stop stop-opacity="1" stop-color="rgb(2.937317%, 7.748413%, 21.34552%)" offset="0.972656"/><stop stop-opacity="1" stop-color="rgb(2.687073%, 7.537842%, 20.928955%)" offset="0.976562"/><stop stop-opacity="1" stop-color="rgb(2.435303%, 7.325745%, 20.51239%)" offset="0.980469"/><stop stop-opacity="1" stop-color="rgb(2.183533%, 7.115173%, 20.095825%)" offset="0.984375"/><stop stop-opacity="1" stop-color="rgb(1.931763%, 6.903076%, 19.67926%)" offset="0.988281"/><stop stop-opacity="1" stop-color="rgb(1.681519%, 6.692505%, 19.262695%)" offset="0.992188"/><stop stop-opacity="1" stop-color="rgb(1.429749%, 6.480408%, 18.84613%)" offset="0.996094"/><stop stop-opacity="1" stop-color="rgb(1.179504%, 6.269836%, 18.429565%)" offset="1"/></linearGradient><clipPath id="62890fca29"><rect x="0" width="323" y="0" height="369"/></clipPath><clipPath id="4ff1658d24"><path d="M 95 103.574219 L 172 103.574219 L 172 141 L 95 141 Z M 95 103.574219 " clip-rule="nonzero"/></clipPath></defs><g clip-path="url(#be72c56951)"><g clip-path="url(#492b88405f)"><g transform="matrix(1, 0, 0, 1, 26, 3)"><g clip-path="url(#62890fca29)"><g clip-path="url(#5ec8a88528)"><g clip-path="url(#708de41d08)"><path fill="url(#6fd2e594d4)" d="M 0.367188 0.234375 L 0.367188 368.761719 L 322.632812 368.761719 L 322.632812 0.234375 Z M 0.367188 0.234375 " fill-rule="nonzero"/></g></g></g></g></g></g><path fill="#ff751f" d="M 143.976562 154.21875 C 143.976562 147.355469 141.105469 126.53125 150.277344 125.800781 C 157.777344 125.210938 159.453125 124.429688 168.347656 124.429688 C 177.917969 124.429688 218.789062 123.195312 224.453125 125.191406 C 233.058594 128.21875 232.265625 138.324219 232.265625 147.246094 C 232.265625 155.222656 232.996094 165.75 223.59375 167.289062 C 214.195312 168.828125 157.871094 169.703125 150.746094 166.988281 C 141.847656 163.589844 144.460938 160.347656 143.976562 154.21875 " fill-opacity="1" fill-rule="evenodd"/><g clip-path="url(#4ff1658d24)"><path fill="#ffffff" d="M 170.09375 120.398438 C 169.90625 116.878906 169.046875 113.53125 167.519531 110.355469 C 166.414062 108.144531 164.976562 106.378906 163.132812 106.046875 C 159.390625 105.367188 151.210938 105.085938 142.847656 105.132812 C 133.882812 105.175781 124.738281 105.59375 120.597656 106.277344 C 117.9375 106.714844 115.640625 107.011719 113.671875 107.265625 C 103.691406 108.539062 102.613281 108.695312 98.488281 123.792969 C 97.582031 127.003906 97.113281 130.277344 97.089844 133.613281 C 97.027344 135.84375 96.851562 138.066406 96.558594 140.28125 L 95.058594 140.082031 C 95.347656 137.917969 95.515625 135.742188 95.570312 133.554688 C 95.601562 130.101562 96.085938 126.710938 97.023438 123.386719 C 101.417969 107.332031 102.597656 107.179688 113.480469 105.773438 C 115.386719 105.527344 117.664062 105.234375 120.359375 104.789062 C 124.539062 104.09375 133.777344 103.667969 142.8125 103.625 C 151.261719 103.582031 159.550781 103.859375 163.382812 104.566406 C 165.742188 104.996094 167.546875 107.109375 168.847656 109.6875 C 170.476562 113.078125 171.390625 116.648438 171.589844 120.40625 Z M 170.09375 120.398438 " fill-opacity="1" fill-rule="nonzero"/></g><path fill="#ffffff" d="M 193.605469 171.058594 C 195.234375 172.742188 195.328125 175.167969 195.4375 177.820312 C 195.640625 182.988281 195.886719 189.113281 209.574219 190.277344 C 211.15625 190.410156 212.234375 190.5625 213.214844 190.703125 C 215.472656 191.039062 217.746094 191.183594 220.027344 191.136719 C 222.730469 191.136719 226.753906 191.320312 231.46875 191.535156 C 248.492188 192.320312 274.597656 193.511719 281.453125 187.835938 C 283.253906 186.351562 283.101562 166.964844 283.050781 159.449219 C 283.050781 158.292969 283.050781 157.359375 283.050781 157.234375 L 284.570312 157.234375 C 284.570312 158.136719 284.570312 158.71875 284.570312 159.445312 C 284.625 167.160156 284.777344 187.0625 282.433594 189.007812 C 275.125 195.050781 248.664062 193.835938 231.414062 193.050781 C 226.773438 192.832031 222.804688 192.65625 220.042969 192.65625 C 217.699219 192.699219 215.367188 192.550781 213.050781 192.203125 C 212.113281 192.070312 211.078125 191.929688 209.488281 191.792969 C 194.46875 190.519531 194.195312 183.660156 193.96875 177.882812 C 193.871094 175.53125 193.785156 173.378906 192.558594 172.105469 Z M 193.605469 171.058594 " fill-opacity="1" fill-rule="nonzero"/><path fill="#d94024" d="M 38.082031 172.359375 C 38.082031 165.496094 35.210938 144.679688 44.382812 143.949219 C 51.890625 143.351562 53.566406 142.570312 62.460938 142.570312 C 72.027344 142.570312 112.894531 141.34375 118.566406 143.339844 C 127.164062 146.363281 126.371094 156.46875 126.371094 165.386719 C 126.371094 173.371094 127.101562 183.898438 117.707031 185.429688 C 108.3125 186.960938 51.976562 187.851562 44.851562 185.136719 C 35.953125 181.734375 38.574219 178.492188 38.082031 172.359375 " fill-opacity="1" fill-rule="evenodd"/><path fill="#f09200" d="M 250.679688 140.675781 C 250.679688 133.808594 247.804688 112.992188 256.976562 112.261719 C 264.476562 111.664062 266.15625 110.882812 275.054688 110.882812 C 284.585938 110.882812 325.488281 109.65625 331.160156 111.652344 C 339.757812 114.679688 338.964844 124.785156 338.964844 133.703125 C 338.964844 141.6875 339.695312 152.210938 330.292969 153.742188 C 320.894531 155.273438 264.570312 156.164062 257.445312 153.449219 C 248.546875 150.050781 251.160156 146.808594 250.675781 140.675781 " fill-opacity="1" fill-rule="evenodd"/><g fill="#ffffff" fill-opacity="1"><g transform="translate(46.509114, 254.805365)"><g><path d="M 24.015625 1.171875 C 20.929688 1.171875 18.078125 0.632812 15.453125 -0.4375 C 12.835938 -1.507812 10.582031 -3.007812 8.6875 -4.9375 C 6.800781 -6.875 5.320312 -9.160156 4.25 -11.796875 C 3.175781 -14.429688 2.640625 -17.332031 2.640625 -20.5 C 2.640625 -23.65625 3.175781 -26.550781 4.25 -29.1875 C 5.320312 -31.820312 6.800781 -34.101562 8.6875 -36.03125 C 10.582031 -37.96875 12.835938 -39.472656 15.453125 -40.546875 C 18.078125 -41.628906 20.929688 -42.171875 24.015625 -42.171875 C 26.078125 -42.171875 27.945312 -41.953125 29.625 -41.515625 C 31.3125 -41.085938 32.828125 -40.519531 34.171875 -39.8125 C 35.515625 -39.113281 36.691406 -38.316406 37.703125 -37.421875 C 38.722656 -36.523438 39.601562 -35.609375 40.34375 -34.671875 C 42.101562 -32.484375 43.394531 -30.003906 44.21875 -27.234375 L 38.9375 -27.234375 C 38.195312 -29.066406 37.164062 -30.722656 35.84375 -32.203125 C 35.257812 -32.828125 34.59375 -33.429688 33.84375 -34.015625 C 33.101562 -34.609375 32.242188 -35.140625 31.265625 -35.609375 C 30.296875 -36.078125 29.203125 -36.457031 27.984375 -36.75 C 26.773438 -37.039062 25.453125 -37.1875 24.015625 -37.1875 C 21.671875 -37.1875 19.507812 -36.785156 17.53125 -35.984375 C 15.5625 -35.179688 13.863281 -34.046875 12.4375 -32.578125 C 11.019531 -31.117188 9.910156 -29.363281 9.109375 -27.3125 C 8.304688 -25.269531 7.90625 -23 7.90625 -20.5 C 7.90625 -18 8.304688 -15.722656 9.109375 -13.671875 C 9.910156 -11.617188 11.019531 -9.859375 12.4375 -8.390625 C 13.863281 -6.929688 15.5625 -5.800781 17.53125 -5 C 19.507812 -4.207031 21.671875 -3.8125 24.015625 -3.8125 C 25.492188 -3.8125 26.859375 -3.96875 28.109375 -4.28125 C 29.359375 -4.59375 30.476562 -5 31.46875 -5.5 C 32.46875 -6.007812 33.347656 -6.585938 34.109375 -7.234375 C 34.867188 -7.878906 35.546875 -8.53125 36.140625 -9.1875 C 37.460938 -10.75 38.492188 -12.566406 39.234375 -14.640625 L 44.5 -14.640625 C 43.570312 -11.671875 42.207031 -9.035156 40.40625 -6.734375 C 39.625 -5.722656 38.71875 -4.75 37.6875 -3.8125 C 36.65625 -2.875 35.460938 -2.03125 34.109375 -1.28125 C 32.765625 -0.539062 31.253906 0.0507812 29.578125 0.5 C 27.898438 0.945312 26.046875 1.171875 24.015625 1.171875 Z M 24.015625 1.171875 "/></g></g></g><g fill="#ffffff" fill-opacity="1"><g transform="translate(93.355935, 254.805365)"><g><path d="M 16.390625 0.578125 C 14.484375 0.578125 12.679688 0.195312 10.984375 -0.5625 C 9.285156 -1.320312 7.789062 -2.375 6.5 -3.71875 C 5.207031 -5.0625 4.191406 -6.671875 3.453125 -8.546875 C 2.710938 -10.421875 2.34375 -12.453125 2.34375 -14.640625 C 2.34375 -16.828125 2.710938 -18.859375 3.453125 -20.734375 C 4.191406 -22.609375 5.207031 -24.21875 6.5 -25.5625 C 7.789062 -26.90625 9.285156 -27.957031 10.984375 -28.71875 C 12.679688 -29.476562 14.484375 -29.859375 16.390625 -29.859375 C 18.304688 -29.859375 19.925781 -29.585938 21.25 -29.046875 C 22.582031 -28.503906 23.664062 -27.898438 24.5 -27.234375 C 25.34375 -26.566406 25.945312 -25.945312 26.3125 -25.375 C 26.6875 -24.8125 26.875 -24.53125 26.875 -24.53125 L 26.9375 -24.53125 L 26.9375 -29.28125 L 31.625 -29.28125 L 31.625 0 L 26.9375 0 L 26.9375 -4.6875 L 26.875 -4.6875 C 26.875 -4.6875 26.6875 -4.398438 26.3125 -3.828125 C 25.945312 -3.265625 25.34375 -2.660156 24.5 -2.015625 C 23.664062 -1.367188 22.582031 -0.773438 21.25 -0.234375 C 19.925781 0.304688 18.304688 0.578125 16.390625 0.578125 Z M 16.984375 -3.8125 C 18.390625 -3.8125 19.695312 -4.070312 20.90625 -4.59375 C 22.113281 -5.125 23.164062 -5.863281 24.0625 -6.8125 C 24.96875 -7.769531 25.671875 -8.910156 26.171875 -10.234375 C 26.679688 -11.566406 26.9375 -13.035156 26.9375 -14.640625 C 26.9375 -16.242188 26.679688 -17.707031 26.171875 -19.03125 C 25.671875 -20.363281 24.96875 -21.503906 24.0625 -22.453125 C 23.164062 -23.410156 22.113281 -24.148438 20.90625 -24.671875 C 19.695312 -25.203125 18.390625 -25.46875 16.984375 -25.46875 C 15.578125 -25.46875 14.269531 -25.203125 13.0625 -24.671875 C 11.851562 -24.148438 10.796875 -23.410156 9.890625 -22.453125 C 8.992188 -21.503906 8.289062 -20.363281 7.78125 -19.03125 C 7.28125 -17.707031 7.03125 -16.242188 7.03125 -14.640625 C 7.03125 -13.035156 7.28125 -11.566406 7.78125 -10.234375 C 8.289062 -8.910156 8.992188 -7.769531 9.890625 -6.8125 C 10.796875 -5.863281 11.851562 -5.125 13.0625 -4.59375 C 14.269531 -4.070312 15.578125 -3.8125 16.984375 -3.8125 Z M 16.984375 -3.8125 "/></g></g></g><g fill="#ffffff" fill-opacity="1"><g transform="translate(129.076629, 254.805365)"><g><path d="M 4.09375 -29.28125 L 8.78125 -29.28125 L 8.78125 -24.890625 L 8.84375 -24.890625 C 9.425781 -25.828125 10.1875 -26.644531 11.125 -27.34375 C 11.90625 -27.96875 12.929688 -28.539062 14.203125 -29.0625 C 15.472656 -29.59375 16.984375 -29.859375 18.734375 -29.859375 C 20.492188 -29.859375 22.09375 -29.578125 23.53125 -29.015625 C 24.976562 -28.453125 26.207031 -27.625 27.21875 -26.53125 C 28.238281 -25.4375 29.03125 -24.117188 29.59375 -22.578125 C 30.164062 -21.035156 30.453125 -19.269531 30.453125 -17.28125 L 30.453125 0 L 25.765625 0 L 25.765625 -16.984375 C 25.765625 -19.910156 25.03125 -22.054688 23.5625 -23.421875 C 22.101562 -24.785156 20.203125 -25.46875 17.859375 -25.46875 C 16.535156 -25.46875 15.316406 -25.242188 14.203125 -24.796875 C 13.085938 -24.347656 12.128906 -23.691406 11.328125 -22.828125 C 10.523438 -21.972656 9.898438 -20.953125 9.453125 -19.765625 C 9.003906 -18.578125 8.78125 -17.257812 8.78125 -15.8125 L 8.78125 0 L 4.09375 0 Z M 4.09375 -29.28125 "/></g></g></g><g fill="#ffffff" fill-opacity="1"><g transform="translate(163.333359, 254.805365)"><g><path d="M 17.28125 0.578125 C 15.164062 0.578125 13.191406 0.195312 11.359375 -0.5625 C 9.523438 -1.320312 7.941406 -2.375 6.609375 -3.71875 C 5.285156 -5.0625 4.242188 -6.671875 3.484375 -8.546875 C 2.722656 -10.421875 2.34375 -12.453125 2.34375 -14.640625 C 2.34375 -16.828125 2.722656 -18.859375 3.484375 -20.734375 C 4.242188 -22.609375 5.285156 -24.21875 6.609375 -25.5625 C 7.941406 -26.90625 9.523438 -27.957031 11.359375 -28.71875 C 13.191406 -29.476562 15.164062 -29.859375 17.28125 -29.859375 C 19.382812 -29.859375 21.351562 -29.476562 23.1875 -28.71875 C 25.019531 -27.957031 26.597656 -26.910156 27.921875 -25.578125 C 29.253906 -24.253906 30.300781 -22.675781 31.0625 -20.84375 C 31.820312 -19.007812 32.203125 -17.039062 32.203125 -14.9375 L 32.203125 -13.171875 L 7.03125 -13.171875 C 7.1875 -11.804688 7.554688 -10.546875 8.140625 -9.390625 C 8.722656 -8.242188 9.460938 -7.257812 10.359375 -6.4375 C 11.265625 -5.625 12.3125 -4.984375 13.5 -4.515625 C 14.6875 -4.046875 15.945312 -3.8125 17.28125 -3.8125 C 19.03125 -3.8125 20.507812 -4.082031 21.71875 -4.625 C 22.9375 -5.175781 23.9375 -5.78125 24.71875 -6.4375 C 25.613281 -7.175781 26.351562 -8.054688 26.9375 -9.078125 L 31.625 -9.078125 C 30.914062 -7.242188 29.921875 -5.625 28.640625 -4.21875 C 27.503906 -3.007812 26.019531 -1.90625 24.1875 -0.90625 C 22.351562 0.0820312 20.050781 0.578125 17.28125 0.578125 Z M 27.234375 -17.28125 C 27.078125 -18.375 26.734375 -19.414062 26.203125 -20.40625 C 25.679688 -21.40625 24.988281 -22.273438 24.125 -23.015625 C 23.269531 -23.753906 22.265625 -24.347656 21.109375 -24.796875 C 19.960938 -25.242188 18.6875 -25.46875 17.28125 -25.46875 C 15.875 -25.46875 14.59375 -25.242188 13.4375 -24.796875 C 12.289062 -24.347656 11.273438 -23.753906 10.390625 -23.015625 C 9.515625 -22.273438 8.800781 -21.40625 8.25 -20.40625 C 7.707031 -19.414062 7.335938 -18.375 7.140625 -17.28125 Z M 27.234375 -17.28125 "/></g></g></g><g fill="#ffffff" fill-opacity="1"><g transform="translate(197.882887, 254.805365)"><g><path d="M 4.6875 -41 L 32.5 -41 L 32.5 -36.015625 L 9.953125 -36.015625 L 9.953125 -21.96875 L 27.8125 -21.96875 L 27.8125 -16.984375 L 9.953125 -16.984375 L 9.953125 0 L 4.6875 0 Z M 4.6875 -41 "/></g></g></g><g fill="#ffffff" fill-opacity="1"><g transform="translate(231.846832, 254.805365)"><g><path d="M 4.09375 -41 L 8.78125 -41 L 8.78125 -4.390625 L 15.515625 -4.390625 L 15.515625 0 L 4.09375 0 Z M 4.09375 -41 "/></g></g></g><g fill="#ffffff" fill-opacity="1"><g transform="translate(247.950431, 254.805365)"><g><path d="M 17.5625 0.578125 C 15.382812 0.578125 13.359375 0.195312 11.484375 -0.5625 C 9.609375 -1.320312 7.992188 -2.375 6.640625 -3.71875 C 5.296875 -5.0625 4.242188 -6.671875 3.484375 -8.546875 C 2.722656 -10.421875 2.34375 -12.453125 2.34375 -14.640625 C 2.34375 -16.828125 2.722656 -18.859375 3.484375 -20.734375 C 4.242188 -22.609375 5.296875 -24.21875 6.640625 -25.5625 C 7.992188 -26.90625 9.609375 -27.957031 11.484375 -28.71875 C 13.359375 -29.476562 15.382812 -29.859375 17.5625 -29.859375 C 19.75 -29.859375 21.78125 -29.476562 23.65625 -28.71875 C 25.53125 -27.957031 27.140625 -26.90625 28.484375 -25.5625 C 29.835938 -24.21875 30.894531 -22.609375 31.65625 -20.734375 C 32.414062 -18.859375 32.796875 -16.828125 32.796875 -14.640625 C 32.796875 -12.453125 32.414062 -10.421875 31.65625 -8.546875 C 30.894531 -6.671875 29.835938 -5.0625 28.484375 -3.71875 C 27.140625 -2.375 25.53125 -1.320312 23.65625 -0.5625 C 21.78125 0.195312 19.75 0.578125 17.5625 0.578125 Z M 17.5625 -3.8125 C 19.09375 -3.8125 20.5 -4.070312 21.78125 -4.59375 C 23.070312 -5.125 24.1875 -5.863281 25.125 -6.8125 C 26.0625 -7.769531 26.789062 -8.910156 27.3125 -10.234375 C 27.84375 -11.566406 28.109375 -13.035156 28.109375 -14.640625 C 28.109375 -16.242188 27.84375 -17.707031 27.3125 -19.03125 C 26.789062 -20.363281 26.0625 -21.503906 25.125 -22.453125 C 24.1875 -23.410156 23.070312 -24.148438 21.78125 -24.671875 C 20.5 -25.203125 19.09375 -25.46875 17.5625 -25.46875 C 16.039062 -25.46875 14.632812 -25.203125 13.34375 -24.671875 C 12.0625 -24.148438 10.953125 -23.410156 10.015625 -22.453125 C 9.078125 -21.503906 8.34375 -20.363281 7.8125 -19.03125 C 7.289062 -17.707031 7.03125 -16.242188 7.03125 -14.640625 C 7.03125 -13.035156 7.289062 -11.566406 7.8125 -10.234375 C 8.34375 -8.910156 9.078125 -7.769531 10.015625 -6.8125 C 10.953125 -5.863281 12.0625 -5.125 13.34375 -4.59375 C 14.632812 -4.070312 16.039062 -3.8125 17.5625 -3.8125 Z M 17.5625 -3.8125 "/></g></g></g><g fill="#ffffff" fill-opacity="1"><g transform="translate(283.08553, 254.805365)"><g><path d="M 1.75 -29.28125 L 6.734375 -29.28125 L 12 -4.390625 L 13.46875 -4.390625 L 18.453125 -29.28125 L 26.9375 -29.28125 L 31.921875 -4.390625 L 33.375 -4.390625 L 38.65625 -29.28125 L 43.625 -29.28125 L 37.1875 0 L 28.109375 0 L 23.125 -24.890625 L 22.25 -24.890625 L 17.28125 0 L 8.203125 0 Z M 1.75 -29.28125 "/></g></g></g></svg>